<svg xmlns="http://www.w3.org/2000/svg" viewBox="0 0 42.87 26.83"><defs><style>.cls-1{fill:gray;}</style></defs><title>Asset 4</title><g id="Layer_2" data-name="Layer 2"><g id="Layer_1-2" data-name="Layer 1"><path class="cls-1" d="M12.42,0a16.48,16.48,0,0,1,3.43.33,7.56,7.56,0,0,1,2.66,1.09,5,5,0,0,1,1.72,2,7.13,7.13,0,0,1,.6,3.09,5.82,5.82,0,0,1-.9,3.32A6.62,6.62,0,0,1,17.24,12a6.3,6.3,0,0,1,3.62,2.45,7.3,7.3,0,0,1,1.19,4.23,7.34,7.34,0,0,1-.76,3.45,6.77,6.77,0,0,1-2.09,2.39,9.25,9.25,0,0,1-3,1.36,13,13,0,0,1-3.45.44H0V0Zm-.75,10.64a4.14,4.14,0,0,0,2.55-.74,2.77,2.77,0,0,0,1-2.39A3.07,3.07,0,0,0,14.88,6,2.36,2.36,0,0,0,14,5.08a3.45,3.45,0,0,0-1.28-.46,7.44,7.44,0,0,0-1.49-.13H5.8v6.15ZM12,21.85a6.81,6.81,0,0,0,1.62-.17A3.69,3.69,0,0,0,15,21.12a2.64,2.64,0,0,0,.94-1.05,3.45,3.45,0,0,0,.35-1.7,3.44,3.44,0,0,0-1.14-2.91,4.86,4.86,0,0,0-3-.86H5.8v7.25Z"/><path class="cls-1" d="M30.32,21.76a4.64,4.64,0,0,0,3.38,1.15,4.63,4.63,0,0,0,2.74-.8,3.37,3.37,0,0,0,1.4-1.69h4.61a8.72,8.72,0,0,1-3.4,4.92,9.85,9.85,0,0,1-5.52,1.49,11.3,11.3,0,0,1-4.07-.72,8.9,8.9,0,0,1-3.08-2.05,9.43,9.43,0,0,1-1.93-3.18,11.5,11.5,0,0,1-.69-4.07,11.17,11.17,0,0,1,.71-4,9.25,9.25,0,0,1,2-3.19A9.64,9.64,0,0,1,29.55,7.5a10,10,0,0,1,4-.77,9.16,9.16,0,0,1,4.24.94,8.52,8.52,0,0,1,3,2.53,10.41,10.41,0,0,1,1.68,3.62,13.77,13.77,0,0,1,.36,4.24H29A5.29,5.29,0,0,0,30.32,21.76Zm6-10a3.9,3.9,0,0,0-3-1.06,4.4,4.4,0,0,0-2.08.43,4.24,4.24,0,0,0-1.24,1,3.74,3.74,0,0,0-.7,1.34,5.51,5.51,0,0,0-.3,1.26h8.52a5,5,0,0,0-1.19-3Z"/><rect class="cls-1" x="27.95" y="1.77" width="10.67" height="2.6"/></g></g></svg>