<svg xmlns="http://www.w3.org/2000/svg" viewBox="0 0 41.45 47.86"><defs><style>.cls-1{fill:none;stroke:#838b8b;stroke-miterlimit:10;stroke-width:2px;}.cls-2{fill:#838b8b;}</style></defs><title>Asset 4</title><g id="Layer_2" data-name="Layer 2"><g id="Layer_1-2" data-name="Layer 1"><polygon class="cls-1" points="1 12.54 1 35.32 20.73 46.71 40.45 35.32 40.45 12.54 20.73 1.16 1 12.54"/><path class="cls-2" d="M12.28,34.55l3.6,1.7c-1.61.8-2.81,1.41-3.6,1.82l-6-2.82,2.34-1.13V29.05L6.32,27.87l2.34-1.13V15.19l3.7-1.85Q12.32,27.49,12.28,34.55ZM19.91,13.1V34.34c-1.68.81-2.95,1.41-3.79,1.83q0-14.16,0-21.25L8.66,11.14c1.66-.81,2.92-1.41,3.76-1.8Z"/><path class="cls-2" d="M35,24.23q0,7.4.06,11.08l-4.1,2.08v0c-1.57.82-2.76,1.43-3.56,1.83L23.7,37.25V32.93l-1.94-1L27.47,29c0,2.92-.06,5.1-.08,6.56l3.5,1.64c0-4.88-.07-8.55-.08-11l-7.58-3.8V17c-1.09-.54-1.9-.95-2.43-1.2l6.26-3.39v.05q2.76-1.5,4.16-2.24l4,2.19c0,1.44,0,2.52,0,3.25l-4.05,1.56c0-1.31-.06-2.3-.08-3-1.82-.79-3.19-1.37-4.1-1.75V20Z"/></g></g></svg>