<svg xmlns="http://www.w3.org/2000/svg" xmlns:xlink="http://www.w3.org/1999/xlink" viewBox="0 0 63.89 62.56"><defs><style>.cls-1{fill:url(#linear-gradient);}.cls-2{fill:url(#linear-gradient-2);}.cls-3{fill:#fff;}</style><linearGradient id="linear-gradient" x1="1623.19" y1="-1100.15" x2="1476.92" y2="-1098.99" gradientTransform="matrix(0.32, 0, 0, -0.32, -477.64, -324.5)" gradientUnits="userSpaceOnUse"><stop offset="0" stop-color="#366a96"/><stop offset="1" stop-color="#3679b0"/></linearGradient><linearGradient id="linear-gradient-2" x1="1674.51" y1="-1150.5" x2="1384.96" y2="-1150.5" gradientTransform="matrix(0.32, 0, 0, -0.32, -477.64, -324.5)" gradientUnits="userSpaceOnUse"><stop offset="0" stop-color="#ffc836"/><stop offset="1" stop-color="#ffe873"/></linearGradient></defs><title>Asset 1</title><g id="Layer_2" data-name="Layer 2"><g id="Layer_1-2" data-name="Layer 1"><path class="cls-1" d="M16.49,8.37c0-4.31,1.19-6.65,7.71-7.76a49,49,0,0,1,15.4,0c4.18.67,7.7,3.72,7.7,7.76V22.58a7.63,7.63,0,0,1-7.7,7.58H24.2a9.67,9.67,0,0,0-9.64,9.29v6.82H9.27c-4.48,0-7.09-3.16-8.18-7.58a27,27,0,0,1,0-15.16A9.56,9.56,0,0,1,10.71,16H31.9V14.06H16.49V8.37Z"/><path class="cls-2" d="M47.3,53.85c0,4.31-3.82,6.49-7.7,7.58a26.69,26.69,0,0,1-15.4,0c-4.08-1.17-7.71-3.54-7.71-7.58V39.64a7.73,7.73,0,0,1,7.71-7.58H39.6a9.74,9.74,0,0,0,9.63-9.48V16H55c4.48,0,6.6,3.26,7.7,7.58,1.54,6,1.61,10.48,0,15.16s-3.22,7.58-7.7,7.58H31.9v1.89H47.3v5.69Z"/><path class="cls-3" d="M20.35,7.43a2.89,2.89,0,1,1,2.88,2.84A2.87,2.87,0,0,1,20.35,7.43ZM37.68,54.79a2.89,2.89,0,1,1,2.88,2.85A2.86,2.86,0,0,1,37.68,54.79Z"/></g></g></svg>